<mxfile host="Electron" modified="2024-05-31T05:06:27.742Z" agent="Mozilla/5.0 (Windows NT 10.0; Win64; x64) AppleWebKit/537.36 (KHTML, like Gecko) draw.io/22.0.3 Chrome/114.0.5735.289 Electron/25.8.4 Safari/537.36" etag="3EPengGOYjhlDK6Fh2pN" version="22.0.3" type="device">
  <diagram id="C5RBs43oDa-KdzZeNtuy" name="Page-1">
    <mxGraphModel dx="918" dy="593" grid="1" gridSize="10" guides="1" tooltips="1" connect="1" arrows="1" fold="1" page="1" pageScale="1" pageWidth="827" pageHeight="1169" math="0" shadow="0">
      <root>
        <mxCell id="WIyWlLk6GJQsqaUBKTNV-0" />
        <mxCell id="WIyWlLk6GJQsqaUBKTNV-1" parent="WIyWlLk6GJQsqaUBKTNV-0" />
        <mxCell id="nDkjyHfl0j68gdk95McF-3" value="" style="edgeStyle=orthogonalEdgeStyle;rounded=0;orthogonalLoop=1;jettySize=auto;html=1;" edge="1" parent="WIyWlLk6GJQsqaUBKTNV-1" source="nDkjyHfl0j68gdk95McF-0" target="nDkjyHfl0j68gdk95McF-2">
          <mxGeometry relative="1" as="geometry" />
        </mxCell>
        <mxCell id="nDkjyHfl0j68gdk95McF-0" value="начало" style="ellipse;whiteSpace=wrap;html=1;fillColor=#f5f5f5;fontColor=#333333;strokeColor=#666666;" vertex="1" parent="WIyWlLk6GJQsqaUBKTNV-1">
          <mxGeometry x="200" y="160" width="120" height="40" as="geometry" />
        </mxCell>
        <mxCell id="nDkjyHfl0j68gdk95McF-1" value="&lt;h1&gt;Мутация&lt;/h1&gt;&lt;div&gt;&lt;span style=&quot;background-color: initial;&quot;&gt;Создание потомков.&lt;/span&gt;&lt;/div&gt;" style="text;html=1;strokeColor=none;fillColor=none;spacing=5;spacingTop=-20;whiteSpace=wrap;overflow=hidden;rounded=0;" vertex="1" parent="WIyWlLk6GJQsqaUBKTNV-1">
          <mxGeometry x="40" y="40" width="520" height="80" as="geometry" />
        </mxCell>
        <mxCell id="nDkjyHfl0j68gdk95McF-17" value="" style="edgeStyle=orthogonalEdgeStyle;rounded=0;orthogonalLoop=1;jettySize=auto;html=1;" edge="1" parent="WIyWlLk6GJQsqaUBKTNV-1" source="nDkjyHfl0j68gdk95McF-2" target="nDkjyHfl0j68gdk95McF-8">
          <mxGeometry relative="1" as="geometry" />
        </mxCell>
        <mxCell id="nDkjyHfl0j68gdk95McF-2" value="ввод коллекции полярных координат&amp;nbsp;&lt;b&gt;polarPonts&lt;/b&gt;&lt;br&gt;ввод кол-ва потомков &lt;b&gt;childCount&lt;/b&gt;" style="shape=parallelogram;perimeter=parallelogramPerimeter;whiteSpace=wrap;html=1;fixedSize=1;fillColor=#dae8fc;strokeColor=#6c8ebf;" vertex="1" parent="WIyWlLk6GJQsqaUBKTNV-1">
          <mxGeometry x="80" y="240" width="360" height="40" as="geometry" />
        </mxCell>
        <mxCell id="nDkjyHfl0j68gdk95McF-11" value="" style="edgeStyle=orthogonalEdgeStyle;rounded=0;orthogonalLoop=1;jettySize=auto;html=1;" edge="1" parent="WIyWlLk6GJQsqaUBKTNV-1" source="nDkjyHfl0j68gdk95McF-8" target="nDkjyHfl0j68gdk95McF-10">
          <mxGeometry relative="1" as="geometry" />
        </mxCell>
        <mxCell id="nDkjyHfl0j68gdk95McF-18" style="edgeStyle=orthogonalEdgeStyle;rounded=0;orthogonalLoop=1;jettySize=auto;html=1;entryX=1;entryY=0.5;entryDx=0;entryDy=0;" edge="1" parent="WIyWlLk6GJQsqaUBKTNV-1" source="nDkjyHfl0j68gdk95McF-8" target="nDkjyHfl0j68gdk95McF-13">
          <mxGeometry relative="1" as="geometry">
            <Array as="points">
              <mxPoint x="480" y="360" />
              <mxPoint x="480" y="580" />
            </Array>
          </mxGeometry>
        </mxCell>
        <mxCell id="nDkjyHfl0j68gdk95McF-8" value="i = 1, childCount" style="shape=hexagon;perimeter=hexagonPerimeter2;whiteSpace=wrap;html=1;fixedSize=1;fillColor=#fff2cc;strokeColor=#d6b656;" vertex="1" parent="WIyWlLk6GJQsqaUBKTNV-1">
          <mxGeometry x="120" y="320" width="280" height="80" as="geometry" />
        </mxCell>
        <mxCell id="nDkjyHfl0j68gdk95McF-12" style="edgeStyle=orthogonalEdgeStyle;rounded=0;orthogonalLoop=1;jettySize=auto;html=1;entryX=0;entryY=0.5;entryDx=0;entryDy=0;" edge="1" parent="WIyWlLk6GJQsqaUBKTNV-1" source="nDkjyHfl0j68gdk95McF-10" target="nDkjyHfl0j68gdk95McF-8">
          <mxGeometry relative="1" as="geometry">
            <Array as="points">
              <mxPoint x="80" y="480" />
              <mxPoint x="80" y="360" />
            </Array>
          </mxGeometry>
        </mxCell>
        <mxCell id="nDkjyHfl0j68gdk95McF-10" value="у 2 случайных координат поменять местами величины углов" style="rounded=0;whiteSpace=wrap;html=1;fillColor=#d5e8d4;strokeColor=#82b366;" vertex="1" parent="WIyWlLk6GJQsqaUBKTNV-1">
          <mxGeometry x="160" y="440" width="200" height="80" as="geometry" />
        </mxCell>
        <mxCell id="nDkjyHfl0j68gdk95McF-16" value="" style="edgeStyle=orthogonalEdgeStyle;rounded=0;orthogonalLoop=1;jettySize=auto;html=1;" edge="1" parent="WIyWlLk6GJQsqaUBKTNV-1" source="nDkjyHfl0j68gdk95McF-13" target="nDkjyHfl0j68gdk95McF-15">
          <mxGeometry relative="1" as="geometry" />
        </mxCell>
        <mxCell id="nDkjyHfl0j68gdk95McF-13" value="вернуть коллекцию коллекций полярных координат" style="shape=parallelogram;perimeter=parallelogramPerimeter;whiteSpace=wrap;html=1;fixedSize=1;fillColor=#dae8fc;strokeColor=#6c8ebf;" vertex="1" parent="WIyWlLk6GJQsqaUBKTNV-1">
          <mxGeometry x="160" y="560" width="200" height="40" as="geometry" />
        </mxCell>
        <mxCell id="nDkjyHfl0j68gdk95McF-15" value="конец" style="ellipse;whiteSpace=wrap;html=1;fillColor=#f5f5f5;fontColor=#333333;strokeColor=#666666;" vertex="1" parent="WIyWlLk6GJQsqaUBKTNV-1">
          <mxGeometry x="200" y="640" width="120" height="40" as="geometry" />
        </mxCell>
      </root>
    </mxGraphModel>
  </diagram>
</mxfile>
